<mxfile host="Electron" agent="Mozilla/5.0 (Windows NT 10.0; Win64; x64) AppleWebKit/537.36 (KHTML, like Gecko) draw.io/24.7.17 Chrome/128.0.6613.36 Electron/32.0.1 Safari/537.36" version="24.7.17">
  <diagram name="Page-1" id="Y_5APWq6_oDFjV13eFZm">
    <mxGraphModel dx="1273" dy="621" grid="1" gridSize="10" guides="1" tooltips="1" connect="1" arrows="1" fold="1" page="1" pageScale="1" pageWidth="827" pageHeight="1169" background="#2b303a" math="0" shadow="0">
      <root>
        <mxCell id="0" />
        <mxCell id="1" parent="0" />
        <mxCell id="-82cDm8OBxpNHkSKKTON-29" value="" style="rounded=1;whiteSpace=wrap;html=1;fillColor=#3A3F48;strokeColor=black" vertex="1" parent="1">
          <mxGeometry x="580" y="680" width="230" height="400" as="geometry" />
        </mxCell>
        <mxCell id="-82cDm8OBxpNHkSKKTON-27" value="" style="rounded=1;whiteSpace=wrap;html=1;fillColor=#3A3F48;strokeColor=black" vertex="1" parent="1">
          <mxGeometry x="300" y="680" width="240" height="400" as="geometry" />
        </mxCell>
        <mxCell id="-82cDm8OBxpNHkSKKTON-24" value="" style="rounded=1;whiteSpace=wrap;html=1;fillColor=#3A3F48&#xa;;strokeColor=black" vertex="1" parent="1">
          <mxGeometry x="20" y="680" width="240" height="400" as="geometry" />
        </mxCell>
        <mxCell id="-82cDm8OBxpNHkSKKTON-21" value="" style="rounded=1;whiteSpace=wrap;html=1;fillColor=#3A3F48;strokeColor=black" vertex="1" parent="1">
          <mxGeometry x="20" y="390" width="180" height="250" as="geometry" />
        </mxCell>
        <mxCell id="-82cDm8OBxpNHkSKKTON-23" value="" style="rounded=1;whiteSpace=wrap;html=1;fillColor=#3A3F48;strokeColor=black" vertex="1" parent="1">
          <mxGeometry x="640" y="390" width="170" height="250" as="geometry" />
        </mxCell>
        <mxCell id="-82cDm8OBxpNHkSKKTON-22" value="" style="rounded=1;whiteSpace=wrap;html=1;fillColor=#3A3F48;strokeColor=black" vertex="1" parent="1">
          <mxGeometry x="234" y="390" width="360" height="250" as="geometry" />
        </mxCell>
        <mxCell id="-82cDm8OBxpNHkSKKTON-1" value="" style="rounded=0;html=1;fillColor=#1e232b;" vertex="1" parent="1">
          <mxGeometry width="827" height="70" as="geometry" />
        </mxCell>
        <mxCell id="-82cDm8OBxpNHkSKKTON-2" value="BASIQUE CUISINE" style="text;html=1;align=center;verticalAlign=middle;whiteSpace=wrap;rounded=0;fontSize=24" vertex="1" parent="1">
          <mxGeometry x="10" y="20" width="240" height="30" as="geometry" />
        </mxCell>
        <mxCell id="-82cDm8OBxpNHkSKKTON-11" value="Search" style="strokeWidth=1;shadow=0;dashed=0;align=center;html=1;shape=mxgraph.mockup.forms.searchBox;strokeColor=#999999;mainText=;strokeColor2=#008cff;fontColor=#666666;fontSize=17;align=left;spacingLeft=3;whiteSpace=wrap;" vertex="1" parent="1">
          <mxGeometry x="620" y="20" width="150" height="30" as="geometry" />
        </mxCell>
        <mxCell id="-82cDm8OBxpNHkSKKTON-12" value="" style="html=1;verticalLabelPosition=bottom;align=center;labelBackgroundColor=#ffffff;verticalAlign=top;strokeWidth=2;strokeColor=#0080F0;shadow=0;dashed=0;shape=mxgraph.ios7.icons.user;" vertex="1" parent="1">
          <mxGeometry x="785" y="20" width="30" height="30" as="geometry" />
        </mxCell>
        <mxCell id="-82cDm8OBxpNHkSKKTON-13" value="Accueil" style="text;html=1;align=center;verticalAlign=middle;whiteSpace=wrap;rounded=0;fontSize=15" vertex="1" parent="1">
          <mxGeometry x="280" y="20" width="60" height="30" as="geometry" />
        </mxCell>
        <mxCell id="-82cDm8OBxpNHkSKKTON-14" value="Programme" style="text;html=1;align=center;verticalAlign=middle;whiteSpace=wrap;rounded=0;fontSize=15" vertex="1" parent="1">
          <mxGeometry x="360" y="20" width="80" height="30" as="geometry" />
        </mxCell>
        <mxCell id="-82cDm8OBxpNHkSKKTON-15" value="Contact" style="text;html=1;align=center;verticalAlign=middle;whiteSpace=wrap;rounded=0;fontSize=15" vertex="1" parent="1">
          <mxGeometry x="460" y="20" width="60" height="30" as="geometry" />
        </mxCell>
        <mxCell id="-82cDm8OBxpNHkSKKTON-16" value="" style="rounded=0;whiteSpace=wrap;html=1;fillColor=#1e232b;" vertex="1" parent="1">
          <mxGeometry y="70" width="827" height="300" as="geometry" />
        </mxCell>
        <mxCell id="-82cDm8OBxpNHkSKKTON-17" value="prix" style="html=1;shadow=0;dashed=0;shape=mxgraph.bootstrap.rangeInput;dx=0.78;strokeColor=#9D968E;fillColor=#E3DDD8;fontColor=#777777;whiteSpace=wrap;align=left;verticalAlign=bottom;fontStyle=0;fontSize=14;labelPosition=center;verticalLabelPosition=top;gradientColor=#F4F2EF;gradientDirection=north;rangeStyle=rect;handleStyle=rect;" vertex="1" parent="1">
          <mxGeometry x="294" y="440" width="240" height="20" as="geometry" />
        </mxCell>
        <mxCell id="-82cDm8OBxpNHkSKKTON-34" value="calories" style="html=1;shadow=0;dashed=0;shape=mxgraph.bootstrap.rangeInput;dx=0.78;strokeColor=#9D968E;fillColor=#E3DDD8;fontColor=#777777;whiteSpace=wrap;align=left;verticalAlign=bottom;fontStyle=0;fontSize=14;labelPosition=center;verticalLabelPosition=top;gradientColor=#F4F2EF;gradientDirection=north;rangeStyle=rect;handleStyle=rect;" vertex="1" parent="1">
          <mxGeometry x="660" y="440" width="140" height="20" as="geometry" />
        </mxCell>
        <mxCell id="-82cDm8OBxpNHkSKKTON-40" value="30â‚¬" style="text;html=1;align=center;verticalAlign=middle;whiteSpace=wrap;rounded=0;fontSize=30;" vertex="1" parent="1">
          <mxGeometry x="354" y="500" width="120" height="90" as="geometry" />
        </mxCell>
        <mxCell id="-82cDm8OBxpNHkSKKTON-41" value="type" style="strokeWidth=1;shadow=0;dashed=0;align=center;html=1;shape=mxgraph.mockup.forms.comboBox;strokeColor=#999999;fillColor=#ddeeff;align=left;fillColor2=#aaddff;mainText=;fontColor=#666666;fontSize=17;spacingLeft=3;" vertex="1" parent="1">
          <mxGeometry x="35" y="430" width="150" height="30" as="geometry" />
        </mxCell>
        <mxCell id="-82cDm8OBxpNHkSKKTON-42" value="voir recette" style="rounded=1;fillColor=#FFD131;strokeColor=none;html=1;whiteSpace=wrap;fontColor=#ffffff;align=center;verticalAlign=middle;fontStyle=0;fontSize=12;sketch=0;fontColor=#2b303a" vertex="1" parent="1">
          <mxGeometry x="97" y="1030" width="86" height="33" as="geometry" />
        </mxCell>
        <mxCell id="-82cDm8OBxpNHkSKKTON-43" value="voir recette" style="rounded=1;fillColor=#FFD131;strokeColor=none;html=1;whiteSpace=wrap;fontColor=#ffffff;align=center;verticalAlign=middle;fontStyle=0;fontSize=12;sketch=0;fontColor=#2b303a" vertex="1" parent="1">
          <mxGeometry x="377" y="1030" width="86" height="33" as="geometry" />
        </mxCell>
        <mxCell id="-82cDm8OBxpNHkSKKTON-44" value="voir recette" style="rounded=1;fillColor=#FFD131;strokeColor=none;html=1;whiteSpace=wrap;fontColor=#ffffff;align=center;verticalAlign=middle;fontStyle=0;fontSize=12;sketch=0;fontColor=#2b303a" vertex="1" parent="1">
          <mxGeometry x="652" y="1030" width="86" height="33" as="geometry" />
        </mxCell>
        <mxCell id="-82cDm8OBxpNHkSKKTON-45" value="description" style="text;html=1;align=center;verticalAlign=middle;whiteSpace=wrap;rounded=0;" vertex="1" parent="1">
          <mxGeometry x="30" y="990" width="220" height="30" as="geometry" />
        </mxCell>
        <mxCell id="-82cDm8OBxpNHkSKKTON-46" value="Tarte aux fraise" style="text;html=1;align=center;verticalAlign=middle;whiteSpace=wrap;rounded=0;fontSize=20;" vertex="1" parent="1">
          <mxGeometry x="30" y="940" width="220" height="30" as="geometry" />
        </mxCell>
        <mxCell id="-82cDm8OBxpNHkSKKTON-47" value="Poulet curry" style="text;html=1;align=center;verticalAlign=middle;whiteSpace=wrap;rounded=0;fontSize=20;" vertex="1" parent="1">
          <mxGeometry x="310" y="940" width="220" height="30" as="geometry" />
        </mxCell>
        <mxCell id="-82cDm8OBxpNHkSKKTON-48" value="frite de bettrave" style="text;html=1;align=center;verticalAlign=middle;whiteSpace=wrap;rounded=0;fontSize=20;" vertex="1" parent="1">
          <mxGeometry x="585" y="940" width="220" height="30" as="geometry" />
        </mxCell>
        <mxCell id="-82cDm8OBxpNHkSKKTON-49" value="description" style="text;html=1;align=center;verticalAlign=middle;whiteSpace=wrap;rounded=0;" vertex="1" parent="1">
          <mxGeometry x="310" y="990" width="220" height="30" as="geometry" />
        </mxCell>
        <mxCell id="-82cDm8OBxpNHkSKKTON-50" value="description" style="text;html=1;align=center;verticalAlign=middle;whiteSpace=wrap;rounded=0;" vertex="1" parent="1">
          <mxGeometry x="585" y="990" width="220" height="30" as="geometry" />
        </mxCell>
        <mxCell id="-82cDm8OBxpNHkSKKTON-51" value="" style="verticalLabelPosition=bottom;verticalAlign=top;html=1;shape=mxgraph.basic.heart" vertex="1" parent="1">
          <mxGeometry x="220" y="700" width="20" height="20" as="geometry" />
        </mxCell>
        <mxCell id="-82cDm8OBxpNHkSKKTON-52" value="" style="verticalLabelPosition=bottom;verticalAlign=top;html=1;shape=mxgraph.basic.heart" vertex="1" parent="1">
          <mxGeometry x="500" y="700" width="20" height="20" as="geometry" />
        </mxCell>
        <mxCell id="-82cDm8OBxpNHkSKKTON-53" value="" style="verticalLabelPosition=bottom;verticalAlign=top;html=1;shape=mxgraph.basic.heart" vertex="1" parent="1">
          <mxGeometry x="770" y="700" width="20" height="20" as="geometry" />
        </mxCell>
      </root>
    </mxGraphModel>
  </diagram>
</mxfile>
